Coordinates
version=1
nRows=13
nColumns=36
inDegrees=yes

Units are S.I. units (second, meters, Newtons, ...)
If the header above contains a line with 'inDegrees', this indicates whether rotational values are in degrees (yes) or radians (no).

endheader
time	pelvis_tilt	pelvis_list	pelvis_rotation	pelvis_tx	pelvis_ty	pelvis_tz	hip_flexion_r	hip_adduction_r	hip_rotation_r	knee_angle_r	knee_angle_r_beta	ankle_angle_r	subtalar_angle_r	mtp_angle_r	hip_flexion_l	hip_adduction_l	hip_rotation_l	knee_angle_l	knee_angle_l_beta	ankle_angle_l	subtalar_angle_l	mtp_angle_l	lumbar_extension	lumbar_bending	lumbar_rotation	arm_flex_r	arm_add_r	arm_rot_r	elbow_flex_r	pro_sup_r	arm_flex_l	arm_add_l	arm_rot_l	elbow_flex_l	pro_sup_l
      1.34000000	    -28.91100287	     -1.08320114	     -8.80402223	     -0.33487676	      0.67976879	     -0.55586829	    104.06431207	     -8.26323172	      2.87659622	    112.10283436	      1.95656356	     24.73153788	      6.51121331	     -7.42674916	    104.61807694	    -17.51090850	     15.79146745	    111.44333682	      1.94505316	     28.57428105	     -5.12270553	     -7.42674916	    -41.44507892	     -5.93595424	     11.96541806	     64.20477410	    -58.81715588	     15.55345690	    112.38955771	    105.72469561	     78.69235834	    -37.76070583	     28.23680187	    118.56430291	    106.94201747
      1.35000000	    -29.09881742	     -1.25469332	     -9.03100803	     -0.33203584	      0.67286950	     -0.55654303	    104.49095934	     -8.09616284	      2.96488429	    112.93648901	      1.97111358	     25.54346172	      6.66803853	     -7.42824394	    105.32156175	    -17.69588662	     16.28537706	    112.47264681	      1.96301801	     29.22589941	     -5.02919633	     -7.42824394	    -42.11940993	     -6.05198226	     12.10360083	     66.63489145	    -58.82797197	     16.54779816	    112.00329049	    105.59477348	     81.06305984	    -37.18803073	     29.51238481	    117.66867296	    106.86976263
      1.36000000	    -29.29897291	     -1.41203794	     -9.22235978	     -0.32912064	      0.66671980	     -0.55722889	    104.92848869	     -7.95732989	      3.06035646	    113.73833295	      1.98510840	     26.22613860	      6.78838854	     -7.42925240	    106.01273028	    -17.88755224	     16.71523218	    113.43794769	      1.97986568	     29.85203983	     -4.91808496	     -7.42925240	    -42.66242993	     -6.13227896	     12.11734938	     68.92199416	    -58.54554485	     17.59722084	    111.48041983	    105.49516221	     83.13398584	    -36.66435676	     30.65658417	    116.76180682	    106.79381198
      1.37000000	    -29.34809781	     -1.60259249	     -9.39546407	     -0.32619257	      0.66163800	     -0.55793797	    105.19193057	     -7.83268286	      3.13886810	    114.47434177	      1.99795417	     26.70462804	      7.13133998	     -7.43249564	    106.56230618	    -18.17067621	     17.06080700	    114.36939558	      1.99612252	     30.48348277	     -4.41396082	     -7.43249564	    -43.37616460	     -5.99757518	     11.54485526	     72.45863339	    -57.52341439	     20.14449379	    110.58177446	    105.15764029	     84.66789707	    -37.02618071	     31.05584312	    116.49717461	    106.53276019
      1.38000000	    -29.44981368	     -1.74429160	     -9.51991418	     -0.32328899	      0.65734149	     -0.55844747	    105.50835432	     -7.72351152	      3.24036660	    115.12846573	      2.00937079	     26.81050219	      7.10612265	     -7.43330652	    107.13257721	    -18.44659785	     17.24195970	    115.17297258	      2.01014758	     30.59392990	     -4.47784938	     -7.43330652	    -43.90944548	     -6.06116516	     11.45464422	     74.21213556	    -57.03316864	     20.70528363	    110.24778195	    105.06358922	     86.44219707	    -36.45834650	     32.04947138	    115.67494932	    106.43674399
      1.39000000	    -29.52197117	     -1.85596363	     -9.52364393	     -0.32037575	      0.65388385	     -0.55912490	    105.77120622	     -7.73049679	      3.44850095	    115.71054193	      2.01952994	     26.76676132	      7.25994045	     -7.43415842	    107.57075481	    -18.53663606	     17.34287956	    115.87058339	      2.02232319	     30.68100604	     -4.53379680	     -7.43415842	    -44.45231414	     -6.04136096	     11.22939336	     76.01094014	    -56.58455673	     21.43912896	    109.95330979	    104.97077835	     87.94371198	    -35.90831287	     32.67613583	    114.98505404	    106.33116239
      1.40000000	    -29.61017077	     -2.00218663	     -9.54319486	     -0.31739201	      0.65122273	     -0.55974366	    105.94596902	     -7.72540459	      3.62822706	    116.17302980	      2.02760187	     26.71873618	      7.57472650	     -7.43501781	    107.94755545	    -18.62334469	     17.47963207	    116.46503031	      2.03269824	     30.71674648	     -4.61591396	     -7.43501781	    -44.88119535	     -5.97240408	     11.04359924	     77.65249759	    -56.08018299	     22.28469936	    109.66137986	    104.88411372	     89.10965349	    -35.33294887	     33.06640228	    114.36977536	    106.25130191
      1.41000000	    -29.66095284	     -2.13921961	     -9.57126560	     -0.31432977	      0.64947611	     -0.56032486	    105.96586035	     -7.67736945	      3.84407263	    116.52371441	      2.03372247	     26.90477475	      8.09394733	     -7.43738672	    108.14067507	    -18.70626385	     17.58958241	    116.93381521	      2.04088008	     30.80283915	     -4.69346722	     -7.43738672	    -45.33560840	     -5.83562401	     10.67626652	     79.56928507	    -55.34904495	     23.57966943	    109.36611249	    104.62160911	     89.87777911	    -35.03498263	     33.02118429	    114.18210895	    106.21768173
      1.42000000	    -29.86302755	     -2.21136193	     -9.58164703	     -0.31111502	      0.64835616	     -0.56075575	    106.05883552	     -7.62264328	      4.03093206	    116.76283059	      2.03789584	     26.88561367	      8.13558646	     -7.43749563	    108.35669883	    -18.74761603	     17.65639030	    117.29111269	      2.04711610	     30.85310812	     -4.74615348	     -7.43749563	    -45.48101382	     -5.80504814	     10.50695969	     80.13743281	    -54.79901642	     23.46074266	    109.47788228	    104.60658144	     90.34904933	    -34.32495981	     33.04463415	    114.03517358	    106.20181927
      1.43000000	    -29.89441094	     -2.23300837	     -9.48951346	     -0.30802443	      0.64860019	     -0.56118696	    105.87530639	     -7.60600500	      4.27290090	    116.84471341	      2.03932496	     26.87833963	      8.31757026	     -7.43783338	    108.23903620	    -18.77944899	     17.50293279	    117.43205449	      2.04957600	     30.93751561	     -4.81880728	     -7.43783338	    -45.75193610	     -5.79633289	     10.24095539	     80.82992823	    -54.21028237	     23.46355856	    109.27486102	    104.54373148	     90.97478224	    -33.56634730	     33.17135490	    113.31844910	    106.13839455
      1.44000000	    -30.07613611	     -2.31386611	     -9.42551209	     -0.30474084	      0.64937275	     -0.56158675	    105.72456466	     -7.56143531	      4.34624074	    116.87366930	      2.03983034	     26.89954167	      8.33142491	     -7.43791084	    108.25132689	    -18.88961766	     17.36192540	    117.51846728	      2.05108419	     30.95961074	     -4.83254860	     -7.43791084	    -45.76110204	     -5.71299632	     10.08473851	     81.05130985	    -53.76411503	     23.53128491	    109.41720374	    104.54206040	     91.12208383	    -32.96227555	     33.34159826	    113.29646813	    106.14591423
      1.45000000	    -30.11951445	     -2.27681643	     -9.24863964	     -0.30160875	      0.65133899	     -0.56218734	    105.41997121	     -7.59668688	      4.56169399	    116.80422995	      2.03861839	     27.02677199	      8.34531056	     -7.43833777	    107.89175740	    -18.82272099	     17.03170757	    117.41873065	      2.04934345	     31.04618062	     -4.93898071	     -7.43833777	    -45.81343566	     -5.66010529	      9.76786285	     81.33142803	    -53.20340514	     23.70560658	    109.26727347	    104.43620549	     91.31801534	    -32.23395189	     33.54098600	    112.65244308	    106.10044472
      1.46000000	    -30.21290878	     -2.26350561	     -9.04023357	     -0.29832680	      0.65404454	     -0.56284767	    105.08366358	     -7.65503135	      4.74674224	    116.64381561	      2.03581863	     27.00981667	      8.34026932	     -7.43874598	    107.47358754	    -18.54272344	     16.82847259	    117.23497578	      2.04613633	     30.98111336	     -5.06100560	     -7.43874598	    -45.75009874	     -5.53075650	      9.47450762	     81.27388310	    -52.74656017	     23.72532046	    109.39113427	    104.32342122	     91.18669351	    -31.63256964	     33.67368935	    112.45088615	    106.09264082
